<svg width="122" height="121" viewBox="0 0 122 121" fill="none" xmlns="http://www.w3.org/2000/svg">
<rect width="122" height="121" fill="#333333" fill-opacity="0.05"/>
<path d="M44.9922 68.5001L43.4922 76.0001L47.9922 73.5001L52.4922 70.5001L57.9922 67.5001L64.4922 65.5001L70.9922 64.5001H76.9922L84.4922 66.0001L76.4922 66.5001L68.9922 67.5001L62.4922 70.0001L53.9922 75.0001C50.9926 76.932 49.5029 78.14 47 80.4996C44.8521 82.6475 41.9844 87.0005 41.4922 87.5001C41 87.9996 37.4922 93.5001 37.4922 93.5001L35.4922 98.5001H44.4922L47.4922 93.5001L50.9922 87.5001L55.4922 89.0001C57.8093 89.741 59.1233 90.1183 61.4922 90.5001C63.7803 91.1087 64.9492 91.3009 66.9922 91.5001C70.3215 91.7867 72.1431 91.766 75.4922 91.5001C78.6177 91.3407 80.1233 91.1034 82.4922 90.5001C85.4365 89.9717 86.9548 89.5044 89.4922 88.5001C93.0104 86.6822 94.9158 85.5213 97.4922 83.0001C100.089 80.861 101.354 79.6551 103.492 77.5001C106.473 75.1892 108.555 73.2673 111.992 68.5001C112.362 67.7957 112.476 67.3598 112.492 66.5001C110.709 64.6432 109.618 63.7206 107.492 62.5001C104.72 60.3663 103.008 59.2571 99.4922 57.5001C96.8624 55.9625 95.2519 55.155 91.4922 54.0001C88.6831 52.5168 87.0156 52.0622 83.9922 51.5001C80.7575 50.69 79.4482 50.5358 77.4922 50.5001C73.0389 50.0052 71.2853 50.1209 68.4922 50.5001C65.4377 50.8582 64.1924 51.0816 62.4922 51.5001C58.9582 52.6987 57.3089 53.8209 54.4922 56.0001C51.9298 57.8381 50.6079 59.1767 48.4922 62.0001L44.9922 68.5001Z" fill="#0CAD4E" stroke="black" stroke-width="0.1"/>
<path d="M23.488 51.4896C24.4509 55.2994 27.9922 60.4896 27.9922 60.4896C30.9528 63.5875 33.4808 65.5396 34.4922 66.0005C35.6518 66.4332 36.1023 66.5757 37.4922 66.5005C37.224 66.5382 37.9002 66.5865 37.9922 66.0005V64.5005C37.826 64.0215 37.7139 63.7776 37.4922 63.4892C37.2263 62.8136 37.1169 62.4754 36.9922 62.0005C36.7859 61.0959 36.694 60.642 36.4922 60.0005C35.9692 57.9364 35.0919 55.4632 34.4922 51.5005C34.598 49.3596 34.4108 47.8494 34.483 45.4892C34.8144 40.6149 35.0379 38.3987 36.483 36.4892L36.4955 36.6412C36.7573 39.8341 36.908 41.6715 37.483 45.4892C37.986 48.3324 38.2506 49.9389 38.483 52.9892C38.7917 55.76 39.1881 56.9742 39.983 58.9892C41.2248 61.4816 42.0349 63.0969 42.983 63.4892C43.9311 63.8814 49.9327 54.3814 49.483 54.4892C50.7757 51.708 51.2429 50.3044 51.483 47.9892C52.1338 44.4734 51.9192 42.4892 51.483 38.9892C51.0469 35.4892 50.5429 33.3173 49.483 30.9892C47.6533 26.8995 46.5443 24.8654 44.4922 22.5003C44.4922 22.5003 38.664 13.8812 37.9922 14.0012C37.9922 14.0012 30.8879 20.9986 30.5014 22.4949C28.0561 25.9412 25.4922 31.4896 25.4922 31.4896L23.4922 39.9896C23.4922 39.9896 22.3875 47.1355 23.488 51.4896Z" fill="#0CAD4E" stroke="black" stroke-width="0.1"/>
</svg>
